<?xml version="1.0" encoding="UTF-8"?>
<svg xmlns="http://www.w3.org/2000/svg" version="1.1" viewBox="0 0 11 12">
  <defs>
    <style>
      .cls-1 {
        fill: none;
      }

      .cls-2 {
        fill: #fff;
      }
    </style>
  </defs>
  <!-- Generator: Adobe Illustrator 28.7.1, SVG Export Plug-In . SVG Version: 1.2.0 Build 142)  -->
  <g>
    <g id="Layer_1">
      <path class="cls-2" d="M9.2,2.4h-.9c0-.7-.4-1.3-.9-1.7C6.9.3,6.2,0,5.5,0c-.7,0-1.4.3-1.9.7-.5.4-.9,1-.9,1.7h-.9c-.5,0-.9.2-1.3.5C.2,3.2,0,3.6,0,4.1v6.2c0,.5.2.9.5,1.2.3.3.8.5,1.3.5h7.4c.5,0,.9-.2,1.3-.5.3-.3.5-.8.5-1.2v-6.2c0-.5-.2-.9-.5-1.2-.3-.3-.8-.5-1.3-.5ZM5.5.9c.4,0,.9.2,1.2.4.3.3.6.6.7,1.1h-3.8c0-.4.3-.8.7-1.1.3-.3.8-.4,1.2-.4ZM10.1,10.3c0,.2,0,.4-.3.6-.2.2-.4.2-.6.2H1.8c-.2,0-.4,0-.6-.2-.2-.2-.3-.4-.3-.6v-6.2c0-.2,0-.4.3-.6.2-.2.4-.2.6-.2h7.4c.2,0,.4,0,.6.2.2.2.3.4.3.6v6.2Z"/>
      <path d="M23.9,5.6h-3.8c-.3,0-.5.3-.5.6.2.9.4,1.8.6,2.7,0,.3.2.4.5.4h2.4c.3,0,.4-.2.5-.4.2-.9.4-1.8.6-2.7,0-.3-.1-.6-.5-.6ZM24.2,6.1c0,.4-.2.9-.3,1.3-.1.5-.2.9-.3,1.4,0,.2-.2.3-.4.3h-2.4c-.2,0-.3,0-.4-.3-.2-.9-.4-1.8-.6-2.7,0-.2,0-.4.3-.4h3.8c.2,0,.4.2.3.4Z"/>
      <path d="M23.3,5.7h-.2s0-.1,0-.2c0-.1,0-.2-.1-.3-.1-.2-.3-.5-.5-.6-.2-.2-.6-.2-.8,0-.2.2-.4.4-.5.6,0,0,0,.2-.1.3,0,0,0,.1,0,.2h-.2s0-.1,0-.2c0-.1,0-.3.2-.4.1-.3.3-.5.6-.7.3-.2.7-.2,1,0,.3.2.5.4.6.7,0,.1,0,.2.1.3,0,0,0,.1,0,.2Z"/>
      <line class="cls-1" x1="23.8" y1="5.6" x2="23.5" y2="5.6"/>
    </g>
  </g>
</svg>