<?xml version="1.0" encoding="utf-8"?>
<!-- Generator: Adobe Illustrator 28.3.0, SVG Export Plug-In . SVG Version: 6.00 Build 0)  -->
<svg version="1.1" id="Layer_1" xmlns="http://www.w3.org/2000/svg" xmlns:xlink="http://www.w3.org/1999/xlink" x="0px" y="0px"
	 viewBox="0 0 14 18" style="enable-background:new 0 0 14 18;" xml:space="preserve">
<style type="text/css">
	.st0{fill:#FFFFFF;}
</style>
<g>
	<g>
		<path class="st0" d="M13.9,10.1c-0.5,3-2.8,5.4-5.9,5.8c-0.7,0.1-1.5,0.1-2.2,0c0,0-0.1,0-0.1,0c0,0,0,0,0,0c-0.2,0-0.5-0.1-1-0.2
			v-2.4c0.5,0.1,0.8,0,1.2-0.3c2.6-1.5,5.2-3,7.8-4.5c0.1,0,0.1-0.1,0.2-0.1C14,9,14,9.5,13.9,10.1z"/>
		<path class="st0" d="M13.8,7.4c-0.8,0.4-1.5,0.9-2.2,1.3c-0.1-0.5-0.4-0.7-0.8-0.9C8.3,6.3,5.7,4.9,3.2,3.4C3.1,3.4,3.1,3.3,3,3.3
			c0.3-0.2,0.6-0.3,0.8-0.5C7.3,1,11.6,2.4,13.3,6c0,0,0,0,0,0c0,0,0,0,0,0c0,0,0,0,0,0c0,0,0,0,0,0C13.4,6.2,13.7,6.8,13.8,7.4z"/>
		<path class="st0" d="M3.8,6.5c0,2.8,0,5.7,0,8.5v0.3c-0.1,0-0.1-0.1-0.2-0.1c-1.9-1.1-3.1-2.7-3.5-4.8c-0.4-2,0.1-3.9,1.3-5.5
			c0,0,0,0,0,0c0-0.1,0.4-0.5,0.8-1c0.7,0.4,1.3,0.8,2,1.2C3.8,5.4,3.8,5.9,3.8,6.5z"/>
	</g>
	<g>
		<path class="st0" d="M7.5,10.4C7.5,10,7.7,9.7,8,9.5C7.9,9.3,7.8,9,7.7,8.8c0-0.1-0.1-0.2-0.2-0.2c-0.1,0-0.2-0.1-0.2-0.1
			c-0.1,0-0.1,0-0.2,0C6.8,8.7,6.5,8.8,6.2,8.9C6.1,8.9,6.1,9,6,9.1c0,0.2-0.2,0.2-0.4,0.2C5.5,9.3,5.4,9.1,5.4,9
			c0-0.2-0.1-0.3-0.2-0.4C5.1,8.5,5,8.4,4.9,8.2c0,0-0.1-0.1-0.1-0.1c0,0,0,0,0,0c0,1.3,0,2.6,0,3.8c0,0.4,0.3,0.5,0.6,0.3
			c0.1-0.1,0.2-0.1,0.4-0.2l0,0c0.1,0,0.1-0.1,0.2-0.1L6,11.9L7.7,11C7.6,10.8,7.5,10.7,7.5,10.4z"/>
		<path class="st0" d="M10.5,8.7c-0.2-0.1-0.4-0.2-0.6-0.3c-0.1,0-0.2-0.1-0.2-0.1L9.6,8.1L7.6,7l0,0C6.9,6.5,6.1,6.1,5.3,5.7
			C5,5.5,4.7,5.6,4.7,6c0,0.5,0,1,0,1.5C5,7.6,5,7.7,5,7.9C5,8,5,8,5.1,8.1c0.1,0.1,0.3,0.3,0.4,0.4C5.6,8.7,5.9,8.6,6,8.7
			c0,0,0,0,0.1,0c0.3-0.1,0.5-0.2,0.8-0.4C7,8.3,7,8.2,7,8.2c0-0.2,0.1-0.4,0.3-0.5c0.2-0.1,0.4,0,0.5,0.2C8,8,8,8.3,7.9,8.4
			c-0.1,0.1-0.1,0.1,0,0.2C8,8.9,8.1,9.1,8.2,9.3c0,0.1,0.1,0.1,0.2,0.1c0.4-0.1,0.8,0.1,1,0.6c0.4-0.2,0.8-0.5,1.2-0.7
			C10.8,9.2,10.8,8.8,10.5,8.7z"/>
	</g>
	<path class="st0" d="M9,10.4C9,10.7,8.8,11,8.4,11s-0.6-0.3-0.6-0.6c0-0.3,0.3-0.6,0.6-0.6C8.8,9.8,9,10.1,9,10.4z"/>
	<path class="st0" d="M7.5,8.4c-0.2,0-0.3-0.1-0.3-0.3c0-0.1,0.1-0.3,0.3-0.3c0.2,0,0.3,0.1,0.3,0.3C7.8,8.3,7.6,8.4,7.5,8.4z"/>
	<path class="st0" d="M5.7,9.2c-0.1,0-0.2-0.1-0.2-0.2c0-0.1,0.1-0.2,0.2-0.2c0.1,0,0.2,0.1,0.2,0.2C5.9,9.1,5.8,9.2,5.7,9.2z"/>
	<path class="st0" d="M4.7,8C4.6,8,4.5,7.9,4.5,7.8c0-0.1,0.1-0.2,0.2-0.2c0.1,0,0.2,0.1,0.2,0.2C4.9,8,4.8,8.1,4.7,8z"/>
</g>
</svg>
